ply
format ascii 1.0
comment mesh vertices and frosting layer bounds
element vertex 10
property double x
property double y
property double z
property double outer_dist
property double inner_dist
element face 10
property list uchar uint vertex_indices
comment gaussians and their properties
element gaussian_index 10
property int i
element gaussian_bary_coords 10
property list uchar double bary_coords
element gaussian_scales 10
property list uchar float scales
element gaussian_quaternions 10
property list uchar double quaternions
element gaussian_opacity 10
property double opacity
comment spherical harmonics coefficients
element gaussian_sh_dc 10
property list uchar float sh_dc_coordinates
element gaussian_sh_rest 10
property list uchar double sh_rest_coordinates
end_header
2.6707284450531006 3.1257309913635254 -5.634613037109375 -0.00899583287537098 0.02277929149568081
2.885303258895874 3.0282058715820312 -5.641395092010498 0.0 0.016126371920108795
3.3066937923431396 2.9124579429626465 -5.606729030609131 -0.039945345371961594 0.10879930853843689
3.8624770641326904 2.8660011291503906 -5.636066436767578 0.004911190830171108 0.012361625209450722
2.547346591949463 3.237730026245117 -5.637619972229004 0.0494309738278389 0.06382852047681808
2.3402397632598877 3.9235880374908447 -5.634125232696533 0.0 0.0
2.3637290000915527 3.894927978515625 -5.640109539031982 0.0 0.056121159344911575
3.322525978088379 2.8843071460723877 -5.650000095367432 0.002243557944893837 0.00911732017993927
2.465798854827881 3.5697021484375 -5.6407623291015625 -0.05258448049426079 0.11124023050069809
2.756758451461792 3.0671021938323975 -5.641204833984375 0.0 0.08001716434955597
3 24 19 66
3 9 68 1
3 54 16 1
3 50 1 68
3 102 11 97
3 102 9 11
3 97 11 0
3 97 0 52
3 66 112 24
3 34 107 131
0
1
2
3
4
5
6
7
8
9
6 -1.7738932 -1.4473921 -1.5419745 -1.6909466 -2.2067027 -2.3600812
6 -0.5939399 -4.6064496 -1.8439406 -3.660488 -2.0128272 -2.5941007
6 -1.8018734 -3.4310126 -2.3004007 -1.5354995 -2.6713321 -1.9428793
6 -1.2822359 -1.9430759 -4.493665 -0.20683616 -2.5860608 -2.3048897
6 -3.414918 -2.457079 -1.4112517 -1.9274483 -0.7650424 -2.2545764
6 -2.423048 -1.3139304 -1.3441192 -2.060059 -5.4243283 -1.3933884
6 -2.8449087 -0.4826142 -3.6634667 -2.259383 -3.7758656 -1.5120124
6 -1.762816 -1.9693472 -3.444698 -1.3315753 -1.3364385 -1.6953787
6 -1.8868583 -1.3671098 -0.923873 -3.0452025 -2.0841854 -3.2315037
6 -1.5274913 -1.9850465 -5.007006 -0.817092 -2.4948442 -2.3702486
3 -3.7176673 -3.7101572 -3.6824896
3 -2.4526465 -3.2878842 -4.0270495
3 -3.7812133 -3.8452497 -3.149491
3 -3.9129477 -2.8873699 -4.069638
3 -5.586427 -4.578118 -5.818413
3 -4.7964063 -4.705073 -4.699459
3 -4.4388914 -4.48665 -4.453382
3 -3.7586327 -3.1402817 -2.2630064
3 -3.148173 -3.1572664 -3.1311352
3 -4.2983775 -4.1037836 -3.8133452
4 0.98204756 0.018182583 0.03320921 0.013913078
4 0.9961361 -0.09811159 0.005123992 -0.1980433
4 0.99997574 -0.056682464 -0.26028326 0.05042604
4 0.70015377 0.17879054 0.13938509 -0.35053524
4 0.660516 0.239344 0.2757825 -0.14142828
4 0.8557572 -0.019759625 -0.11203018 -0.07746778
4 0.92484957 0.070172384 0.0086716125 -0.08156628
4 1.0258291 -0.16339894 0.049677104 -0.1016333
4 1.0800563 -0.016825581 0.017570315 -0.016125124
4 1.0648291 0.06090566 0.022652458 -0.04036004
-1.137727975845337
-0.8046154379844666
-2.846493721008301
-2.8409574031829834
-5.166314601898193
-5.546886444091797
-5.542818546295166
-1.2890839576721191
-1.0869622230529785
-5.547154903411865
3 -1.4026654 -1.4952084 -1.4413517
3 -1.3699337 -1.3698678 -1.0766139
3 -1.3387488 -1.3803532 -1.384713
3 -1.3739743 -1.5235512 -1.4906017
3 -1.7373718 -1.7586672 -1.7447815
3 -1.7373718 -1.7586672 -1.7447815
3 -1.7373718 -1.7586672 -1.7447815
3 -1.4805841 -1.564688 -1.5610381
3 -1.3900584 -1.4947727 -1.4562064
3 -1.2319417 -1.3546695 -1.2174494
45 0.006282583 -0.010046801 -0.013484987 -0.0074484246 -0.0057480084 -0.0063481373 -0.030630566 -0.037750024 -0.02850371 0.0028329573 0.022452846 0.015788082 -0.008278018 0.004106998 0.0040417244 0.0017578071 -0.0055601215 -0.0048249094 0.0196686 0.024183258 0.016351232 0.11536716 0.09126122 0.06851777 -0.02238432 -0.036239035 -0.03029329 0.0041411207 -0.0132265305 -0.011968871 0.014543981 0.0069032377 0.0050895535 0.011034132 0.03611024 0.032295447 -0.00605342 -0.007864257 -0.0066238157 -0.07004288 -0.060009915 -0.04984602 -0.044269796 -0.014612402 -0.010861277
45 -0.00811346 -0.023823937 -0.04075691 -0.0070352824 -0.0115505345 -0.024171531 -0.030395301 -0.03785387 -0.03944492 0.019713221 0.026047962 0.03591226 0.009524532 0.014789088 0.031843957 0.001730265 -0.0045350785 0.010920893 0.02106807 0.018248819 0.024146095 0.08410363 0.044998635 0.009734528 -0.0303766 -0.0392978 -0.039401375 -0.011155429 -0.030419094 -0.03806868 0.0008720355 -0.023732817 -0.037340812 0.0441388 0.014154054 -0.0053585316 -0.0019192591 -0.018425124 -0.027023975 -0.04642857 -0.014886447 0.004015382 0.0019585462 0.028579215 0.044695627
45 0.011197683 -0.0058217943 -0.007504156 -0.013890512 -0.01009273 -0.0076819663 -0.02447742 -0.037141137 -0.028821275 -0.0076781795 0.017175874 0.016359484 -0.0064430432 0.00620102 0.006817446 0.019218508 0.006000136 0.0056125494 0.01872785 0.028009458 0.024020694 0.11357815 0.08592326 0.07227186 0.0023730942 -0.010593183 -0.010133746 0.01768369 -0.0022005143 -0.0008318619 0.011518374 0.0014373544 0.003167926 -0.022173004 0.01312014 0.01730043 -0.0024200203 -0.0070324573 -0.0033504285 -0.07446158 -0.039352693 -0.03284308 -0.07055169 -0.023215482 -0.019526597
45 0.009239828 -0.010526669 -0.01812787 -0.011108571 -0.0034488724 -0.0019147545 -0.02367591 -0.03657064 -0.028066788 -0.0049186894 0.017102798 0.020244965 -0.0039852257 0.0011281538 0.007908369 0.018399375 -0.014075866 -0.016018206 0.017891873 0.017069273 0.011998267 0.11584981 0.08263179 0.032760475 -0.010216871 -0.03945073 -0.032691013 0.010519061 -0.02151165 -0.021748077 0.0069596875 -0.00931657 -0.010897309 -0.019860426 0.033119608 0.039544355 -0.0055025755 -0.017288642 -0.013265606 -0.07780944 -0.053153437 -0.020082446 -0.05276268 0.0023109713 0.015518251
45 0.019818135 0.0051926263 0.0027640606 0.008258201 0.005183727 0.006556641 -0.0051458296 -0.014128541 -0.0040572 -0.01408398 -0.0055787135 -0.008194993 -0.016490508 -0.012656445 -0.00977524 -0.0040821363 -0.013673507 -0.0124398 -0.0015824486 -0.0025747556 -0.008100419 0.055549994 0.040342096 0.016170634 0.005886672 0.004503671 0.0077703446 0.0130677195 0.006179413 0.007789127 0.013991546 0.0066987486 0.0071777636 0.0095620025 0.006757413 0.005926209 0.009630318 0.0064501674 0.007348937 -0.009600813 -0.0003702637 0.00085980364 -0.02154685 -0.004604808 -0.0065611536
45 0.019818135 0.0051926263 0.0027640606 0.008258201 0.005183727 0.006556641 -0.0051458296 -0.014128541 -0.0040572 -0.01408398 -0.0055787135 -0.008194993 -0.016490508 -0.012656445 -0.00977524 -0.0040821363 -0.013673507 -0.0124398 -0.0015824486 -0.0025747556 -0.008100419 0.055549994 0.040342096 0.016170634 0.005886672 0.004503671 0.0077703446 0.0130677195 0.006179413 0.007789127 0.013991546 0.0066987486 0.0071777636 0.0095620025 0.006757413 0.005926209 0.009630318 0.0064501674 0.007348937 -0.009600813 -0.0003702637 0.00085980364 -0.02154685 -0.004604808 -0.0065611536
45 0.019818135 0.0051926263 0.0027640606 0.008258201 0.005183727 0.006556641 -0.0051458296 -0.014128541 -0.0040572 -0.01408398 -0.0055787135 -0.008194993 -0.016490508 -0.012656445 -0.00977524 -0.0040821363 -0.013673507 -0.0124398 -0.0015824486 -0.0025747556 -0.008100419 0.055549994 0.040342096 0.016170634 0.005886672 0.004503671 0.0077703446 0.0130677195 0.006179413 0.007789127 0.013991546 0.0066987486 0.0071777636 0.0095620025 0.006757413 0.005926209 0.009630318 0.0064501674 0.007348937 -0.009600813 -0.0003702637 0.00085980364 -0.02154685 -0.004604808 -0.0065611536
45 0.018077739 -0.0022970415 -0.009612617 -0.007523334 -0.0015267725 0.0013771333 -0.021225717 -0.02218204 -0.010405523 -0.015833667 0.0034031814 0.0023167173 -0.014938889 -0.0020906616 0.0040916004 0.015220281 -0.0034874382 -0.0070727873 0.013528057 0.007903679 -0.00063924777 0.12996604 0.067089975 0.021399846 0.00039447306 0.005734729 0.020247113 0.02121516 0.007423719 0.007692074 0.019446746 0.0068033854 0.0022517603 -0.018625718 0.013110475 0.02526604 -0.00055460096 0.009289218 0.016563673 -0.090308934 -0.02029785 0.016457772 -0.06774711 -0.019792778 -0.008145239
45 0.004807553 -0.010717508 -0.013262926 -0.008090847 -0.005789861 -0.005626711 -0.030630007 -0.03729455 -0.027386345 0.003635708 0.022624005 0.015164364 -0.0067689097 0.0048089386 0.0038560175 0.0024170638 -0.005458301 -0.005476829 0.019684995 0.023740636 0.015245502 0.11053599 0.08777386 0.06525178 -0.0216924 -0.035378184 -0.028906984 0.0032999308 -0.013422089 -0.011370694 0.012985442 0.006145189 0.005205577 0.010867053 0.03573629 0.032525286 -0.0060953763 -0.007446197 -0.005541735 -0.06516493 -0.056497402 -0.04655465 -0.040613588 -0.011866323 -0.00907114
45 -0.0066636833 -0.01394662 -0.027395476 -0.0189495 -0.011874134 -0.015294419 -0.020581828 -0.026326574 -0.021927504 -0.0022328221 0.008873563 0.01463798 0.008532423 0.009375765 0.021210894 0.024190558 0.0054884753 0.0070748143 0.010947268 0.012396817 0.011470508 0.05193792 0.04298092 0.0034290461 -0.0065705725 -0.0046939547 0.046273094 0.0056876778 0.0044184765 -1.5825191e-05 -0.0108242845 -0.0026237895 -0.0077149393 -0.03982528 0.009945847 0.03138304 -0.0029319432 0.0040790336 0.0061400724 -0.011837612 -0.008845812 0.018710872 -0.019685026 -0.012999136 0.001946776
